# xmcd
#
# Track frame offsets:
#	150
#	17427
#	47867
#	68310
#	77613
#	100046
#	122131
#	138156
#	155836
#	170301
#	199615
#	223882
#	244844
#	261180
#	281809
#	299107
#
# Disc length: 4235 seconds
#
# Revision: 0
# Processed by: cddbd v1.4PL0 Copyright (c) Steve Scherf et al.
# Submitted via: audiograbber 1.80.04
#
DISCID=ea108910
DTITLE=DJ DRED - нема HITS
DYEAR=2002
DGENRE=
TTITLE0=REAMON - SUPERGIRL
TTITLE1=EMINEM - STAN
TTITLE2=BON JOVI - I 'D DIE FOR YOU
TTITLE3=BLUR - SONG 2
TTITLE4=AEROSMITH - I DON'T WANT TO MISS A THING
TTITLE5=BIG SLEEP - LOKKING FOR A GIRL IN THE WASHING MACHINE
TTITLE6=DANDY WORHOLES - BOHEMIAN LIKE YOU
TTITLE7=HIM - WICHED GAME
TTITLE8=JAMES - GETTING AWAY WITH IT
TTITLE9=SCORPIONS - STILL LOVING YOU
TTITLE10=RED HOT CHILLI PEPPERS - CALIFORNICATION
TTITLE11=LIQUIDO - NORTONIC
TTITLE12=PLACEBO - EVERY ME AND EVERY YOU
TTITLE13=METALLICA - THE UNFORGIVEN
TTITLE14=DAVID USHER - BLACK BLACK HEART
TTITLE15=RAINING PLEASURE - FAKE
EXTD=
EXTT0=
EXTT1=
EXTT2=
EXTT3=
EXTT4=
EXTT5=
EXTT6=
EXTT7=
EXTT8=
EXTT9=
EXTT10=
EXTT11=
EXTT12=
EXTT13=
EXTT14=
EXTT15=
PLAYORDER=
